<svg width="217" height="1772" viewBox="0 0 217 1772" fill="none" xmlns="http://www.w3.org/2000/svg">
<path d="M61.3789 67.9404C65.9943 120.44 73.5312 136.349 164.915 165.349C220.961 183.134 217.671 83.7568 164.925 116.757C127.852 139.951 78.8743 332 44.0647 332C0.552731 332 2.8387 280 43.9987 280C108.673 280 93.7613 568.111 164.915 573.5C215.367 577.321 215.667 516.997 164.915 532C110.225 548.167 98.3257 785.5 41.884 785.5C0.724031 785.5 8.56588 726.263 41.884 733C91.8577 743.105 117.915 999.09 164.955 1006.5C211.995 1013.91 211.216 944.715 171.82 956C110.117 973.675 101.854 1221.01 41.884 1236.5C4.60015 1246.13 -2.31386 1182.5 41.884 1182.5C103.618 1182.5 106.737 1469.51 164.955 1485C210.225 1497.05 207.612 1414.58 164.955 1426.5C92.6251 1446.71 84.6201 1680.48 25.82 1704.06" stroke="url(#paint0_linear_113_981)" stroke-width="20" stroke-linecap="round"/>
<defs>
<linearGradient id="paint0_linear_113_981" x1="107.337" y1="146.891" x2="107.337" y2="1840.42" gradientUnits="userSpaceOnUse">
<stop stop-color="#8D5BFF"/>
<stop offset="0.325" stop-color="#688CE8"/>
<stop offset="0.625" stop-color="#42C7C8"/>
<stop offset="0.99" stop-color="#72B2C0"/>
</linearGradient>
</defs>
</svg>
